<?xml version="1.0" standalone="no"?>
<!DOCTYPE svg PUBLIC "-//W3C//DTD SVG 20010904//EN"
 "http://www.w3.org/TR/2001/REC-SVG-20010904/DTD/svg10.dtd">
<svg version="1.0" xmlns="http://www.w3.org/2000/svg"
 width="1021.000000pt" height="246.445534pt" viewBox="0 0 1021.000000 246.445534"
 preserveAspectRatio="xMidYMid meet">
<metadata>
Created by Potrace Professional 1.1m
</metadata>
<g transform="translate(-1.000000,246.831478) rotate(-360.00) scale(0.095238,-0.095238)"
fill="#000000" stroke="none">
<path d="M4683 2573 c-78 -29 -150 -103 -172 -179 -37 -125 -13 -235 70 -320
78 -80 117 -89 372 -89 l204 0 -4 44 c-3 44 -4 45 -47 48 l-44 3 30 48 c54 84
63 202 25 295 -23 55 -83 113 -143 140 -78 34 -212 39 -291 10z m224 -107 c87
-44 124 -149 90 -252 -26 -77 -84 -114 -178 -114 -129 0 -195 73 -187 205 8
114 70 173 184 173 38 0 78 -5 91 -12z"/>
<path d="M7663 2576 c-62 -21 -128 -76 -158 -133 -20 -37 -24 -60 -24 -154 0
-121 15 -166 75 -222 66 -61 115 -77 235 -77 80 0 125 5 165 19 31 10 57 23
60 27 9 14 -17 96 -30 96 -7 0 -35 -8 -62 -17 -71 -25 -205 -18 -245 12 -51
38 -72 86 -72 162 0 79 23 128 78 165 29 20 50 24 118 24 45 0 106 -5 135 -12
30 -6 57 -8 60 -5 3 3 1 28 -4 56 -9 50 -9 50 -61 62 -76 18 -212 16 -270 -3z"/>
<path d="M11 1297 l0 -1286 152 0 152 0 0 551 0 551 467 0 468 0 0 -551 0
-551 761 0 761 0 0 1286 0 1286 -152 0 -152 0 0 -1134 0 -1134 -457 0 -457 0
0 1134 0 1134 -772 0 -771 0 0 -1286z m1239 551 l0 -430 -468 0 -467 0 0 423
c0 233 3 427 7 431 4 3 214 7 467 7 l461 0 0 -431z"/>
<path d="M3228 2314 c-72 -148 -134 -280 -137 -294 -6 -24 -4 -25 59 -25 l64
0 31 68 31 69 129 -1 c70 0 134 -3 141 -8 7 -4 25 -35 39 -68 l27 -60 68 0
c38 0 69 4 69 9 0 6 -51 113 -112 239 -61 127 -122 255 -137 285 l-25 55 -58
0 -58 0 -131 -269z m279 -84 c0 -2 -42 -4 -94 -4 l-94 0 19 45 c11 24 33 72
48 107 l28 62 46 -104 c26 -56 47 -105 47 -106z"/>
<path d="M3837 2570 c-3 -8 -4 -139 -2 -292 l3 -278 63 0 63 0 3 82 3 81 93 0
93 0 53 -84 54 -84 66 0 c37 0 70 3 73 6 4 4 -19 44 -50 90 -32 46 -57 87 -57
91 0 5 14 17 32 27 68 40 94 175 51 259 -29 57 -87 93 -169 105 -105 15 -366
13 -372 -3z m384 -121 c44 -22 62 -70 43 -115 -20 -50 -48 -60 -177 -64 l-118
-4 0 101 0 101 108 -1 c81 0 116 -4 144 -18z"/>
<path d="M5262 2359 l4 -226 32 -45 c17 -25 53 -58 78 -72 42 -23 59 -26 158
-26 123 0 172 17 223 78 48 56 55 96 55 310 l0 200 -63 0 -63 0 -5 -200 c-6
-218 -14 -247 -70 -268 -39 -15 -127 -12 -160 5 -51 26 -58 57 -64 269 l-6
194 -61 3 -61 3 3 -225z"/>
<path d="M5964 2290 l0 -295 63 0 63 0 -2 291 -3 292 -61 3 -60 3 0 -294z"/>
<path d="M6192 2576 c-4 -4 -7 -30 -7 -57 l0 -51 118 -3 118 -3 3 -233 2 -234
63 0 63 0 0 236 0 237 109 0 109 0 5 49 c2 28 3 54 0 58 -5 10 -574 11 -583 1z"/>
<path d="M6867 2363 c0 -228 5 -260 45 -303 49 -53 75 -59 268 -63 101 -2 186
0 191 5 4 5 11 31 15 59 l7 50 -164 0 c-208 0 -235 11 -236 102 0 23 0 24 179
24 l178 0 0 52 0 52 -176 3 -176 3 0 58 0 57 192 3 192 3 0 31 c0 16 -5 42
-11 57 l-10 27 -247 0 -247 0 0 -220z"/>
<path d="M8071 2576 c-4 -4 -7 -30 -7 -58 l0 -50 116 0 115 0 0 -231 0 -231
25 -6 c13 -4 43 -5 65 -3 l41 3 3 234 3 234 104 0 c115 0 116 0 116 74 l0 41
-287 0 c-158 0 -290 -3 -294 -7z"/>
<path d="M8740 2567 c-4 -9 -4 -105 -2 -213 5 -208 11 -235 65 -294 49 -55 98
-70 217 -70 125 0 177 19 223 81 44 59 50 95 50 303 l0 198 -25 6 c-14 4 -41
5 -61 3 l-35 -3 -5 -194 c-6 -211 -16 -247 -71 -273 -36 -16 -125 -14 -161 5
-52 27 -57 47 -62 262 l-6 200 -60 3 c-48 2 -62 -1 -67 -14z"/>
<path d="M9452 2575 c-10 -7 -12 -73 -10 -292 l3 -283 63 0 63 0 3 82 3 82 96
-3 96 -3 49 -79 49 -79 75 -3 c41 -2 75 0 75 3 0 3 -27 47 -60 97 -38 56 -56
92 -48 95 57 19 98 91 98 175 0 98 -36 154 -121 191 -34 15 -81 19 -231 22
-104 2 -195 0 -203 -5z m383 -128 c39 -24 50 -52 41 -101 -11 -58 -44 -72
-181 -77 l-119 -3 0 101 0 101 113 -1 c93 0 119 -3 146 -20z"/>
<path d="M10345 2574 c-11 -8 -275 -554 -275 -570 0 -6 28 -9 65 -7 l66 3 31
63 32 63 133 2 134 2 34 -65 35 -65 65 -3 c37 -2 66 1 66 7 0 14 -41 103 -166
360 l-105 216 -52 0 c-29 0 -57 -3 -63 -6z m103 -242 c23 -53 42 -99 42 -101
0 -3 -41 -5 -90 -5 -49 0 -89 4 -89 9 0 5 15 41 33 81 17 39 37 83 42 97 5 14
12 24 15 21 2 -3 23 -49 47 -102z"/>
<path d="M7475 1592 c-69 -18 -110 -52 -131 -106 -31 -81 -1 -153 79 -194 22
-11 88 -30 149 -42 60 -12 122 -27 137 -33 61 -25 42 -83 -32 -104 -68 -19
-163 -11 -306 26 -24 6 -28 2 -45 -42 l-17 -48 33 -14 c69 -28 151 -40 265
-36 98 3 124 8 168 30 75 38 103 83 98 160 -8 103 -51 132 -264 176 -56 11
-111 25 -122 31 -43 23 -33 79 17 91 28 7 234 -2 295 -13 32 -6 34 -5 34 26 0
68 -13 81 -93 94 -93 16 -203 15 -265 -2z"/>
<path d="M3087 1297 l0 -289 68 0 69 0 0 289 0 289 -69 0 -68 0 0 -289z"/>
<path d="M3583 1383 c3 -178 6 -207 25 -249 45 -97 120 -137 256 -136 134 0
212 40 253 131 15 35 19 73 20 231 1 104 1 197 1 207 -1 16 -11 19 -64 19
l-63 0 0 -187 c0 -156 -3 -192 -18 -223 -48 -96 -210 -96 -258 0 -15 31 -18
67 -18 223 l0 187 -69 0 -68 0 3 -203z"/>
<path d="M4295 1297 l0 -289 63 0 63 0 0 84 0 84 93 0 c105 0 99 4 158 -98
l38 -65 76 -3 c41 -2 76 0 76 3 0 3 -26 45 -58 92 l-58 86 37 30 c52 43 71 85
71 159 1 73 -18 116 -66 157 -49 41 -94 48 -302 48 l-191 1 0 -289z m395 156
c42 -31 46 -94 10 -137 -25 -29 -28 -30 -153 -33 l-126 -4 0 102 0 101 120 -3
c102 -3 124 -7 149 -26z"/>
<path d="M4988 1296 l0 -290 217 4 c193 3 223 6 260 24 59 30 90 80 90 145 0
54 -28 115 -58 127 -13 5 -11 13 11 46 23 33 27 48 23 94 -3 40 -12 63 -30 83
-47 51 -76 57 -303 57 l-210 0 0 -290z m403 170 c13 -9 20 -27 20 -48 0 -56
-21 -63 -168 -63 l-129 0 0 63 0 63 129 0 c92 0 135 -5 148 -15z m12 -232 c28
-29 30 -35 15 -73 -14 -37 -69 -50 -194 -46 l-105 3 -3 71 -3 71 132 0 c126 0
133 -1 158 -26z"/>
<path d="M5812 1457 c-34 -71 -96 -200 -138 -286 l-76 -158 63 -3 c35 -2 69 2
76 7 6 6 21 34 32 64 l21 53 142 0 143 0 27 -63 28 -63 70 0 c66 0 70 1 63 22
-4 12 -65 142 -137 289 l-129 267 -62 0 -62 0 -61 -129z m170 -116 l44 -97
-85 -3 c-47 -2 -87 0 -90 3 -7 6 72 195 82 195 3 0 25 -44 49 -98z"/>
<path d="M6353 1297 l0 -289 68 0 68 0 0 184 0 185 118 -139 c65 -76 135 -159
155 -184 34 -44 39 -46 92 -46 l55 0 0 289 0 289 -63 0 -63 0 -2 -181 -3 -181
-152 180 -153 181 -60 0 -60 1 0 -289z"/>
<path d="M7067 1297 l0 -289 68 0 68 0 0 289 0 289 -68 0 -68 0 0 -289z"/>
<path d="M7991 1297 l0 -289 62 0 63 0 3 181 3 180 76 -95 c116 -146 129 -146
241 -7 l82 102 3 -181 2 -180 63 0 63 0 0 289 0 289 -55 -1 -55 -1 -95 -126
c-52 -69 -102 -133 -111 -141 -15 -14 -28 -1 -125 127 l-108 142 -56 0 -56 0
0 -289z"/>
<path d="M8810 1367 c0 -205 1 -221 23 -264 40 -79 73 -89 299 -93 180 -3 192
-2 192 16 0 10 3 36 7 57 l6 39 -179 3 c-202 4 -206 6 -218 80 l-7 45 180 0
180 0 0 52 0 52 -176 3 -176 3 0 58 0 57 191 3 192 3 0 36 c0 72 13 69 -264
69 l-250 0 0 -219z"/>
<path d="M6913 609 c-148 -31 -228 -137 -228 -300 -1 -72 4 -94 28 -144 45
-91 120 -141 239 -159 59 -8 177 9 237 36 l45 19 -17 49 c-13 38 -20 47 -34
42 -161 -63 -292 -41 -344 58 -50 94 -20 222 65 271 38 22 51 24 136 19 52 -3
110 -11 129 -18 19 -6 37 -10 40 -7 2 2 1 28 -2 58 -7 53 -7 53 -53 65 -65 16
-190 22 -241 11z"/>
<path d="M8741 605 c-95 -24 -158 -72 -201 -153 -30 -57 -28 -231 4 -291 53
-100 161 -155 297 -154 208 2 326 128 313 333 -8 119 -64 202 -167 247 -62 28
-177 36 -246 18z m177 -115 c102 -43 142 -196 77 -293 -29 -43 -104 -81 -159
-81 -56 0 -131 38 -160 82 -64 96 -25 248 75 291 42 18 124 19 167 1z"/>
<path d="M3087 310 l0 -289 173 0 c150 0 180 3 232 22 122 46 179 143 170 292
-5 94 -31 152 -87 198 -65 53 -123 66 -316 66 l-172 0 0 -289z m368 153 c53
-28 77 -75 77 -153 0 -127 -58 -173 -214 -173 l-94 0 0 173 0 173 97 0 c75 0
106 -5 134 -20z"/>
<path d="M3789 594 c-9 -10 2 -432 12 -464 14 -40 58 -82 104 -97 21 -7 110
-12 218 -12 l182 0 0 41 c0 23 3 49 6 58 6 15 -13 17 -168 17 -172 -1 -175 0
-201 25 -17 18 -25 38 -25 63 l0 38 178 0 179 0 0 52 0 53 -179 0 -178 0 0 57
0 58 194 0 c216 0 201 -6 187 76 l-6 40 -249 0 c-137 0 -251 -3 -254 -5z"/>
<path d="M4652 310 l0 -289 213 0 c205 0 215 1 265 26 64 32 90 72 90 141 1
53 -24 114 -49 123 -21 8 -19 22 6 54 15 19 21 42 21 82 0 48 -5 62 -33 93
-18 21 -49 42 -71 48 -21 6 -129 10 -240 10 l-202 1 0 -289z m409 163 c26 -27
27 -54 1 -86 -19 -24 -26 -25 -150 -25 l-129 0 -4 51 c-5 82 -8 81 135 81 112
0 128 -3 147 -21z m11 -230 c27 -33 26 -60 -6 -92 -25 -25 -29 -26 -154 -23
l-129 3 -3 57 c-6 90 -10 87 140 83 124 -3 134 -5 152 -28z"/>
<path d="M5407 319 c-75 -153 -136 -283 -136 -288 0 -6 30 -10 67 -10 l67 0
27 63 27 63 141 0 141 0 27 -63 27 -63 69 0 c38 0 69 4 69 8 0 4 -60 134 -134
288 l-134 281 -61 0 -61 1 -136 -280z m272 -38 l11 -29 -90 0 c-103 0 -100
-10 -38 124 l37 81 35 -74 c19 -40 40 -86 45 -102z"/>
<path d="M6025 423 c-2 -147 -1 -363 1 -394 1 -4 29 -8 64 -8 l63 0 0 82 0 82
95 0 95 1 49 -82 50 -82 76 -1 c59 0 75 3 70 13 -5 7 -31 48 -60 90 l-51 77
42 36 c51 44 68 91 63 177 -5 78 -32 122 -97 156 -40 21 -60 24 -251 27 l-207
3 -2 -177z m331 64 c95 -13 133 -92 76 -158 -25 -29 -28 -30 -152 -33 l-127
-4 0 101 0 101 77 0 c43 0 99 -4 126 -7z"/>
<path d="M7330 391 c1 -217 7 -260 48 -311 41 -51 80 -59 280 -59 181 0 183 0
189 24 4 13 7 38 7 57 l0 33 -179 3 c-203 4 -209 7 -209 85 l0 40 179 0 179 0
-4 49 -3 50 -176 3 -175 3 0 57 0 58 191 2 192 3 -4 48 c-2 25 -6 50 -8 55 -3
4 -118 8 -257 8 l-251 0 1 -208z"/>
<path d="M7980 310 l0 -289 247 0 247 0 0 58 0 58 -179 0 -178 0 -3 228 -3
228 -65 3 -66 4 0 -290z"/>
<path d="M9282 310 l0 -289 63 0 63 0 1 165 c1 91 1 172 0 179 -4 31 23 3 166
-165 l152 -179 56 0 56 0 0 289 0 289 -63 0 -63 0 0 -179 c0 -98 -4 -178 -8
-178 -5 0 -76 80 -159 178 l-150 179 -57 0 -57 0 0 -289z"/>
<path d="M10175 554 c-10 -24 -68 -144 -127 -265 -145 -300 -138 -268 -56
-268 l69 0 27 63 27 63 140 0 141 0 27 -63 27 -63 72 0 c40 0 73 2 73 4 0 2
-62 131 -137 286 l-137 282 -63 3 -63 4 -20 -46z m129 -198 c23 -52 39 -97 36
-100 -3 -3 -43 -4 -90 -2 l-85 3 43 97 c24 54 46 97 49 97 4 0 25 -43 47 -95z"/>
</g>
</svg>
