<?xml version="1.0" standalone="no"?>
<!DOCTYPE svg PUBLIC "-//W3C//DTD SVG 20010904//EN"
 "http://www.w3.org/TR/2001/REC-SVG-20010904/DTD/svg10.dtd">
<svg version="1.0" xmlns="http://www.w3.org/2000/svg"
 width="263.000000pt" height="245.000000pt" viewBox="0 0 263.000000 245.000000"
 preserveAspectRatio="xMidYMid meet">
<metadata>
Created by Potrace Professional 1.1m
</metadata>
<g transform="translate(-1.000000,246.000000) rotate(-360.00) scale(0.095238,-0.095238)"
fill="#000000" stroke="none">
<path d="M11 1297 l0 -1286 152 0 152 0 0 551 0 551 467 0 468 0 0 -551 0
-551 761 0 761 0 0 1286 0 1286 -152 0 -152 0 0 -1134 0 -1134 -457 0 -457 0
0 1134 0 1134 -772 0 -771 0 0 -1286z m1239 551 l0 -430 -468 0 -467 0 0 423
c0 233 3 427 7 431 4 3 214 7 467 7 l461 0 0 -431z"/>
</g>
</svg>
