<?xml version="1.0" standalone="no"?>
<!DOCTYPE svg PUBLIC "-//W3C//DTD SVG 20010904//EN"
 "http://www.w3.org/TR/2001/REC-SVG-20010904/DTD/svg10.dtd">
<svg version="1.0" xmlns="http://www.w3.org/2000/svg"
 width="185.266013pt" height="185.414353pt" viewBox="0 0 185.266013 185.414353"
 preserveAspectRatio="xMidYMid meet">
<metadata>
Created by Potrace Professional 1.1m
</metadata>
<g transform="translate(-1.379487,189.657972) rotate(-360.00) scale(0.095238,-0.095238)"
fill="#f40801" stroke="none">
<path d="M903 1989 c-14 -2 -59 -10 -100 -16 -201 -33 -417 -157 -554 -319
-327 -385 -310 -956 40 -1313 166 -170 354 -263 587 -290 308 -36 616 77 823
302 466 505 283 1317 -353 1570 -43 17 -110 38 -150 46 -75 16 -248 28 -293
20z m-27 -179 c8 -21 8 -344 0 -365 -9 -22 -53 -22 -61 0 -4 9 -6 91 -6 183 0
91 2 173 6 182 3 10 17 17 30 17 13 0 27 -7 31 -17z m-152 -88 c21 -11 43 -62
42 -99 0 -39 -16 -52 -70 -53 l-50 -1 0 -42 c0 -34 3 -41 20 -41 14 0 23 9 27
26 7 31 56 43 66 17 9 -23 -12 -79 -35 -91 -32 -17 -100 -12 -127 10 -23 19
-25 27 -25 132 0 105 2 114 25 132 27 22 95 27 127 10z m-201 -307 c9 -9 13
-77 13 -240 -1 -245 -3 -257 -55 -249 l-24 3 -3 235 c-2 165 1 239 9 250 15
17 43 18 60 1z m462 0 c7 -7 13 -41 13 -80 0 -66 0 -67 19 -50 30 27 94 19
119 -15 42 -57 38 -270 -6 -322 -28 -32 -80 -37 -109 -10 -18 16 -21 16 -37
-4 -21 -25 -32 -26 -54 -4 -14 14 -16 51 -16 245 0 234 3 253 42 253 9 0 22
-6 29 -13z m-710 -137 c5 -9 12 -7 22 7 9 12 24 18 40 15 l25 -3 3 -223 c3
-222 3 -222 -23 -252 -23 -26 -32 -29 -93 -29 -79 0 -116 22 -110 67 4 36 44
42 76 11 39 -36 63 -24 66 34 l4 50 -30 -16 c-41 -21 -60 -19 -94 10 -29 25
-30 28 -33 155 -2 114 0 134 18 163 11 18 32 35 45 37 29 5 73 -9 84 -26z
m524 9 c35 -15 46 -58 46 -181 l0 -119 -33 -33 c-28 -28 -40 -32 -85 -32 -62
0 -101 22 -117 67 -16 46 -14 212 3 253 26 62 101 80 186 45z m503 -7 c6 -10
11 -78 11 -151 l0 -131 25 0 c14 0 30 5 34 13 5 7 11 74 14 149 l5 137 28 3
c45 5 52 -21 49 -199 -3 -150 -5 -160 -26 -174 -20 -13 -25 -13 -42 4 -18 19
-21 19 -56 1 -38 -19 -66 -16 -97 11 -16 14 -18 37 -18 182 0 144 2 167 17
175 22 13 43 5 56 -20z m407 5 c31 -20 48 -53 40 -84 -5 -19 -13 -25 -37 -25
-24 0 -32 6 -41 32 -9 25 -17 32 -35 29 -38 -6 -34 -29 13 -69 100 -86 105
-92 105 -141 0 -56 -25 -87 -80 -102 -53 -15 -95 -4 -125 33 -42 49 -33 103
16 103 25 0 32 -6 39 -35 7 -26 15 -34 37 -37 24 -3 29 0 29 24 0 20 -16 38
-63 75 -67 52 -91 96 -79 144 17 69 111 96 181 53z m-76 -437 c3 -13 4 -92 3
-176 l-3 -152 -26 0 -27 0 -3 162 c-1 89 0 168 3 176 8 23 47 16 53 -10z m114
7 c10 -26 7 -312 -3 -328 -5 -8 -18 -13 -29 -11 -18 4 -19 17 -22 166 -2 89
-1 168 2 176 7 19 44 17 52 -3z m-1246 -81 c9 -11 19 -55 38 -160 2 -13 7 -5
12 21 23 123 31 147 53 147 28 0 32 -38 10 -122 -39 -156 -35 -145 -68 -145
-19 0 -35 7 -40 18 -18 34 -58 220 -51 237 8 21 32 23 46 4z m303 -13 c22 -21
26 -35 23 -71 l-3 -44 -50 -3 -51 -4 4 -38 c3 -46 24 -52 43 -13 18 36 53 35
58 -2 4 -43 -30 -71 -87 -71 -67 0 -79 22 -79 136 0 113 13 134 87 136 18 0
39 -10 55 -26z m116 10 c6 -14 9 -14 26 2 25 23 52 11 52 -22 0 -21 -8 -30
-32 -38 -30 -11 -31 -12 -34 -102 -3 -90 -3 -91 -29 -91 l-26 0 -3 120 c-2 66
-1 126 2 134 7 19 37 17 44 -3z m166 7 c4 -6 19 -5 37 2 24 9 37 8 56 -2 21
-11 30 -11 48 0 15 10 30 11 51 4 l29 -11 3 -128 3 -128 -25 0 c-31 0 -35 11
-38 126 -1 48 -4 90 -6 93 -2 2 -11 1 -20 -3 -13 -5 -17 -25 -17 -98 0 -100
-7 -123 -38 -117 -17 4 -20 16 -22 104 -4 104 -12 127 -38 105 -12 -9 -17 -39
-19 -109 -3 -95 -4 -96 -29 -96 l-27 0 -3 119 c-3 119 4 149 35 149 8 0 17 -5
20 -10z m416 -10 c19 -15 24 -30 25 -71 l1 -51 -55 -3 c-48 -3 -55 -7 -55 -25
0 -11 5 -30 11 -42 9 -17 14 -18 26 -8 8 6 15 18 15 25 0 20 32 29 49 15 20
-17 18 -34 -8 -66 -17 -22 -30 -27 -67 -27 -38 0 -50 5 -69 28 -20 26 -22 40
-19 117 3 77 7 90 29 107 31 26 86 26 117 1z"/>
<path d="M648 1673 c-4 -4 -7 -18 -7 -32 0 -19 5 -24 26 -24 24 0 27 4 24 29
-3 27 -28 43 -43 27z"/>
<path d="M1019 1229 c-12 -8 -17 -35 -20 -103 -3 -80 -1 -96 17 -118 18 -22
23 -24 38 -11 31 25 20 243 -12 242 -4 0 -15 -5 -23 -10z"/>
<path d="M230 1228 c-11 -7 -15 -34 -15 -109 0 -108 11 -136 45 -115 14 9 19
30 21 94 2 46 1 93 -2 106 -7 26 -28 37 -49 24z"/>
<path d="M698 1228 c-4 -7 -10 -50 -13 -98 -6 -102 7 -146 42 -141 22 3 24 9
27 103 2 55 0 110 -3 123 -6 25 -41 33 -53 13z"/>
<path d="M725 709 c0 -19 5 -26 21 -26 15 0 21 7 21 26 0 19 -6 26 -21 26 -16
0 -21 -7 -21 -26z"/>
<path d="M1424 719 c-11 -30 -7 -36 20 -36 22 0 27 4 24 23 -4 28 -35 37 -44
13z"/>
</g>
</svg>
